/* XPM */
static char *_b80a0cc2b6c4744f4a2d85089454f7atsz9xznXNiTpKhLx[] = {
/* columns rows colors chars-per-pixel */
"100 100 25 1 ",
"  c #00BCD4",
". c #21C5DA",
"X c #3ECCDE",
"o c #57D3E3",
"O c #6DD9E6",
"+ c #80DEEA",
"@ c #90E2EC",
"# c #A5E7F0",
"$ c #B1EAF2",
"% c #BBEDF4",
"& c #C4EFF5",
"* c #CCF2F6",
"= c #DFF7FA",
"- c #E3F8FA",
"; c #E7F9FB",
": c #EAF9FB",
"> c #ECFAFC",
", c #EDFAFC",
"< c #F1FBFD",
"1 c #F4FCFD",
"2 c #F7FDFE",
"3 c #F9FDFE",
"4 c #FBFEFE",
"5 c #FCFEFE",
"6 c white",
/* pixels */
"                                                                                                    ",
"                                                                       X                            ",
"                                                                     X  X.                          ",
"                                                                    XXX-  oX.                       ",
"                                                                     ;o.-%.X..X.                    ",
"                                                                    = =6o:$:%XX.X                   ",
"                                                                     =66666&O%:#.O.                 ",
"                                                                     666666664&O- XOX               ",
"                                                                    X 6666666666;3O.O               ",
"                                                                   = X.6666666666>6=>XXX            ",
"                                                                    =1=:666666666644=OXX            ",
"                                                                      166166666666666:>OX           ",
"                                                                        %466-6666666666=OX          ",
"                                                                          .%666-66666664OX          ",
"                                                                             -:166666666;oX         ",
"                                                                  X           =44>6666666:X         ",
"                                                                X X             1666666666.         ",
"                                                               XO =X.OX.X       ; 66666661X         ",
"                                                               X:X-XXoX X        =66666661          ",
"                                                               =-o6>1,1&:X.X     =-666666=          ",
"                                                               = 66643>X;.XoX    =%-66666=          ",
"                                                                666666666&>oO    ==-<66-3=          ",
"                                                               X666666666664:X.X   =66;=1#          ",
"                                                              =X 66666666666: XX     XX-3=          ",
"                                                              = --66666666666&,.X                   ",
"                                                               =136666666666663;X                   ",
"                                                                 =36666666666666X                   ",
"                                                                   -o>666666666,O                   ",
"                                                                   =-<3666666666 OX                 ",
"                                                                     =6666666666=XX                 ",
"                                                                       -O66666666=oX                ",
"                                                                       ==--6666663=X                ",
"                                                                         3646666664.                ",
"                                                                         - >>666661                 ",
"                                                                          -3-66666#                 ",
"                                                                           =-6666X                  ",
"                                                                           # =;6=6=                 ",
"                                                                             ##& ==                 ",
"                                                                               . ##                 ",
"                                                                                                    ",
"                                                                                                    ",
"                                                                                                    ",
"                                                                                                    ",
"                                                                                                    ",
"                                                                                                    ",
"                                                                                                    ",
"                                                                                                    ",
"                                                                                                    ",
"                                                                                                    ",
"                                                                                                    ",
"                                                                                                    ",
"                                                                                                    ",
"                                                                                                    ",
"                                                                                                    ",
"                                                                                                    ",
"                                                                                                    ",
"                                                                                                    ",
"                                                                                                    ",
"                                                                                                    ",
"                                                                                                    ",
"                                                                                                    ",
"                                                                                                    ",
"                                                                                                    ",
"                                                                                                    ",
"                                                                                                    ",
"                                                                                                    ",
"                 XX                                                                                 ",
"               XX XXX                                                                               ",
"              XOO;; OOX                                                                             ",
"               ;,O,;;XOX                                                                            ",
"              ===66,6;,OXX                                                                          ",
"               =6666644OOOXX.                                                                       ",
"               666666666,@O  XX                                                                     ",
"              XX6666666666>>*oOo.                                                                   ",
"             ==XX666666666*@O:- XOX                                                                 ",
"              =46666666666666,4:&XOoX.                                                              ",
"                4666666666666664;,>.XX                                                              ",
"                  46666666666666666;-%XX.                                                           ",
"                  ==:,66666666666664-XX                                                             ",
"                   =466666666666666666-%X.                                                          ",
"                     -466664&6666666666=#                                                           ",
"      X                XX-66666666666666#                                                           ",
"    X XXX                   =6666666666                                                             ",
"   XOX;  OXXXX                ;4666666X.                                                            ",
"   X,O-;;OOO XXX                -46661                                                              ",
"   -==6O,><<>>XOOX                XX-641#                                                           ",
"   ==666664<@,;-XOO                                                                                 ",
"    6666666666<6,;XOo                                                                               ",
"   X66666666666644;XXX                                                                              ",
"  =XX666666666666666%XX.                                                                            ",
"  ==3=666666666666644XX                                                                             ",
"    -66666666666666664#X.                                                                           ",
"      X-66666666666666=#                                                                            ",
"         XX666666666666#                                                                            ",
"             466666666                                                                              ",
"               466666X.                                                                             ",
"                 ;366=                                                                              ",
"                   X.=1#                                                                            ",
"                                                                                                    ",
"                                                                                                    "
};
