/* XPM */
static char *_3d5e6b006c04bec8793bfa663a09cbejwASVN1RIk5dpoOv[] = {
/* columns rows colors chars-per-pixel */
"100 100 4 1 ",
"  c None",
". c black",
"X c #F44336",
"o c white",
/* pixels */
"                                                                                                    ",
"                                                                                                    ",
"                                                                                                    ",
"                                                                                                    ",
"                                                                                                    ",
"                                                                                                    ",
"                                                                                                    ",
"                                                                                                    ",
"                                                                                                    ",
"                                                                                                    ",
"                                                                                                    ",
"                                                                                                    ",
"                                                                                                    ",
"                                                                                                    ",
"                                                                                                    ",
"                                                                                                    ",
"                                                                                                    ",
"                                                                                                    ",
"                                                                                                    ",
"                                                                                                    ",
"                                                                                                    ",
"                                                                                                    ",
"                                                                                                    ",
"                                                                                                    ",
"                                                                                                    ",
"                                     ........                                                       ",
"                                    ..ooooooo......                                                 ",
"                                    .ooooooooooooo...                                               ",
"                                  ..ooooooooooooooooo..                                             ",
"                                 ..ooooooooooooooooooo...                                           ",
"                                 .oooooooooooooooooooooo..                                          ",
"                                 .ooooooooooooooooooooooo.                                          ",
"                                 .oooooooooooooooooooooooo.                                         ",
"                                 .oooooo.oooooooo.oooooooo.                                         ",
"                                 .oooooo.oooooooo.ooooooo .                                         ",
"                                 .oooooo.oooooooo.oooooooo.                                         ",
"                                  .ooooo.oooooooo.ooooooo .                                         ",
"                                  ..oooooooooooooooooooooo.                                         ",
"                                   .ooooooooooooooooooooo..                                         ",
"                                    .oooooooooooooooooooo.                                          ",
"                                    ..oooo.......oooooooo.                                          ",
"                                    ..oooo.XXXXX.ooooooo.                                           ",
"                                    .ooooo.......ooooooo.                                           ",
"                                    .ooooooooooooooooooo..                                          ",
"                                   .ooooooooooooooooooooo..                                         ",
"                                  .oooooooooooooooooooooooo..                                       ",
"                                  .oooooooooooooooooooooooooo..                                     ",
"                                 ..ooooooooooooooooooooooooooo..                                    ",
"                                 .ooooooooooooooooooooooooooooo.                                    ",
"                                .ooooooooooooooooooooooooooooooo..                                  ",
"                                .oooooooooooooooooooooooooooooooo.                                  ",
"                                .ooooooooooooooooooooooooooooooooo.                                 ",
"                                .ooooooooooooooooooooooooooooooooo.                                 ",
"                               .oooooooooooooooooooooooooooooooooo.                                 ",
"                               .ooooooooooooooooooooooooooooooooooo.                                ",
"                              ..ooooooooooooooooooooooooooooooooooo.                                ",
"                              .ooooooooooooooooooooooooooooooooooooo.                               ",
"                              .ooooooooooooooooooooooooooooooooooooo.                               ",
"                              .oooooooooooooooooooooooooooooooooooooo.                              ",
"                              .oooooooooooooooooooooooooooooooooooooo.                              ",
"                              .oooooooooooooooooooooooooooooooooooooo.                              ",
"                             ..oooooooooooooooooooooooooooooooooooooo.                              ",
"                             .ooooooooooooooooooooooooooooooooooooooo.                              ",
"                             .ooooooooooooooooooooooooooooooooooooooo.                              ",
"                             .ooooooooooooooooooooooooooooooooooooooo.                              ",
"                             ..oooooooooooooooooooooooooooooooooooooo.                              ",
"                              .oooooooooooooooooooooooooooooooooooooo.                              ",
"                               .oooooooooooooooooooooooooooooooooooo..                              ",
"                               ..ooooooooooooooooooooooooooooooooooo.                               ",
"                                 ...oooooooooooooooooooooooooooooooo.                               ",
"                                   ......oooooooooooooooooooooooooo..                               ",
"                                        .........oooooooooooooooooo.                                ",
"                                        .        .........ooooooo..                                 ",
"                                        .              .  .......                                   ",
"                                        .              .                                            ",
"                                        .              .                                            ",
"                                        .              .                                            ",
"                                        .              .                                            ",
"                                        .              .                                            ",
"                                        .              .                                            ",
"                                        .              .                                            ",
"                                  .......          .....                                            ",
"                                                                                                    ",
"                                                                                                    ",
"                                                                                                    ",
"                                                                                                    ",
"                                                                                                    ",
"                                                                                                    ",
"                                                                                                    ",
"                                                                                                    ",
"                                                                                                    ",
"                                                                                                    ",
"                                                                                                    ",
"                                                                                                    ",
"                                                                                                    ",
"                                                                                                    ",
"                                                                                                    ",
"                                                                                                    ",
"                                                                                                    ",
"                                                                                                    "
};
