/* XPM */
static char *_4a656cf80244508a303386ecf0bf42flFx29wLcSBSvotdk[] = {
/* columns rows colors chars-per-pixel */
"100 100 3 1 ",
"  c None",
". c #795548",
"X c white",
/* pixels */
"                                                                                                    ",
"                                                                                                    ",
"                                                                                                    ",
"                                                                                                    ",
"                                                                                                    ",
"                                                                                                    ",
"                                                                                                    ",
"                                                                                                    ",
"                                                                                                    ",
"                                                                                                    ",
"                                                                                                    ",
"                                                                                                    ",
"                                                                                                    ",
"                                                                                                    ",
"                                                                                                    ",
"                                                                                                    ",
"                                                                                                    ",
"                                                                                                    ",
"                                                                                                    ",
"                                                                                                    ",
"                                              XXXXXXXXXXX                                           ",
"                                         XXXXXXXXXXXXXXXXXXX                                        ",
"                                        XXXXXXXXXXXXXXXXXXXXXX                                      ",
"                                       XXXXXXXXXXXXXXXXXXXXXXXXXXXXX                                ",
"                                       XXXXXXXXXXXXXXXXXXXXXXXXXXXXX                                ",
"                                      XXXXXXXXXXXXXXXXXXXXXXXXXXXXXXX                               ",
"                                     XXXXXXXXXXXXXXXXXXXXXXXXXXXXXXXX                               ",
"                                     XXXXXXXXXXXXXXXXXXXXXXXXXXXXXXXX                               ",
"                                    XXXXXXXXXXXXXXXXXXXXXXXXXXXXXXXXX                               ",
"                                    XXXXXXXXXXXXXXXXXXXXXXXXXXXXXXXXX                               ",
"                                   XXXXXXXXXXXXXXXXXXXXXXXXXXXXXXXXXXX                              ",
"                                  XXXXXXXXXXXXXXXXXXXXXXXXXXXXXXXXXXXXX                             ",
"                                 XXXXXXXXXXXXXXXXXXXXXXXXXXXXXXXXXXXXXX                             ",
"                                XXXXXXXXXXXXXXXXXXXXXXXXXXXXXXXXXXXXXXXX                            ",
"                                XXXXXXXXXXXXXXXXXXXXXXXXXXXXXXXXXXXXXXXX                            ",
"                               XXXXXXXXXXXXXXXXXXXXXXXXXXXXXXXXXXXXXXXXX                            ",
"                              XXXXXXXXXXXXXXXXXXXXXXXXXXXXXXXXXXXXXXXXXXXX                          ",
"                              XXXX.XXXXXXXXXXXXXXXXXXX...XXXXX......XXXXX                           ",
"                               X........................................X                           ",
"                             XXX.........................................XXX                        ",
"                            XX..............................................X                       ",
"                           XX...............................................X                       ",
"                          X.................................................X                       ",
"                         X..................................................X                       ",
"                       XX....................................................X                      ",
"                      XX.....................................................X                      ",
"                     XX......................................................X                      ",
"                    XXX.......................................................X                     ",
"                    X.........................................................X                     ",
"                   XX..........................................................XX                   ",
"                  XX............................................................X                   ",
"                  XXXX..........................................................X                   ",
"                 X X............................................................X                   ",
"                 XX.............................................................XX                  ",
"                X.................................................................XX                ",
"               X...................................................................X                ",
"               X...................................................................X                ",
"               X..................................................................XX                ",
"               X...................................................................X                ",
"               X...................................................................X                ",
"              X....................................................................X                ",
"             X.....................................................................X                ",
"             X.....................................................................X                ",
"             X......................................................................XX              ",
"             X.......................................................................XX             ",
"             XX.......................................................................X             ",
"              X.......................................................................XX            ",
"             X.........................................................................X            ",
"            X.........................................................................XX            ",
"            X.........................................................................XX            ",
"            X.........................................................................XX            ",
"            X..........................................................................X            ",
"           X...........................................................................X            ",
"           X...........................................................................X            ",
"          X............................................................................X            ",
"          X.............................................................................X           ",
"         X..............................................................................X           ",
"         X..............................................................................X           ",
"         X..............................................................................X           ",
"        XX...............................................................................XX         ",
"        X.................................................................................XX        ",
"       XX..................................................................................X        ",
"       X..................................................................................X         ",
"       X..................................................................................X         ",
"      X...................................................................................X         ",
"      X....................................................................................X        ",
"     XX....................................................................................X        ",
"     X.....................................................................................XX       ",
"     X......................................................................................X       ",
"    X.......................................................................................X       ",
"    X........................................................................................X      ",
"   X.........................................................................................XX     ",
"   X..........................................................................................X     ",
"  X............................................................................................X    ",
"  X.............................................................................................X   ",
" X..............................................................................................X   ",
" X.......................XXXXXXXXXXXXXXXXXXXX....................................................X  ",
" X................XXXXXXX                    XXXXXXXXXXXXXXXXXXXXXXXXXXXXXXXXXXXXXXXXXXXXXXXXXXXXXX ",
"XXXXXXXXXXXXXXXXXX                                                                                  ",
"                                                                                                    "
};
